<svg width="24" height="24" viewBox="0 0 24 24" fill="none" xmlns="http://www.w3.org/2000/svg">
<rect width="24" height="24" fill="white"/>
<rect x="6.5" y="9" width="11" height="2.5" fill="#707070"/>
<path fill-rule="evenodd" clip-rule="evenodd" d="M5 2H7V2.95238H17V2H19V2.95238C20.6569 2.95238 22 4.29553 22 5.95238V19C22 20.6569 20.6569 22 19 22H5C3.34315 22 2 20.6569 2 19V5.95238C2 4.29553 3.34315 2.95238 5 2.95238L5 2ZM19 4.95238H5C4.44772 4.95238 4 5.4001 4 5.95238V19C4 19.5523 4.44772 20 5 20H19C19.5523 20 20 19.5523 20 19V5.95238C20 5.4001 19.5523 4.95238 19 4.95238Z" fill="#707070"/>
</svg>
